# xmcd
#
# Track frame offsets:
#	150
#	9727
#	32257
#	51412
#	72625
#	93692
#	115020
#	135965
#	149872
#	166862
#	190585
#	201600
#	237447
#
# Disc length: 3294 seconds
#
# Revision: 1
# Processed by: cddbd v1.5PL3 Copyright (c) Steve Scherf et al.
# Submitted via: CDex 1.50Beta5
#
DISCID=bf0cdc0d
DTITLE=GREAT3 - Richmond High
DYEAR=1995
DGENRE=Rock
TTITLE0=Richmondo High
TTITLE1=Fool and the Gang
TTITLE2=I Believe In You
TTITLE3=Oh Baby
TTITLE4=エデン特急
TTITLE5=Madness Blue
TTITLE6=想い出のサマーブリーズ
TTITLE7=腰ぬけマシーン
TTITLE8=ジェット・コースター日和
TTITLE9=Summer’s Gone
TTITLE10=Mr.Spicoli
TTITLE11=Under the Dog
TTITLE12=My Bunny Eyes
EXTD=
EXTT0=
EXTT1=
EXTT2=
EXTT3=
EXTT4=
EXTT5=
EXTT6=
EXTT7=
EXTT8=
EXTT9=
EXTT10=
EXTT11=
EXTT12=
PLAYORDER=
